<?xml version="1.0" encoding="UTF-8"?>
<svg id="Layer_2" xmlns="http://www.w3.org/2000/svg" width="475.311" height="475.648" viewBox="0 0 475.311 475.648">
  <g id="Layer_2-2" data-name="Layer_2">
    <g>
      <path d="M465.43,399.542c-2.94-.1-5.89-.02-8.62-.02-.31-.87-.51-1.17-.51-1.47-.04-7.83-.07-15.67-.08-23.5-.01-10.2-2.84-13.05-13.03-13.05h-24.98c0-9.73.06-18.71-.02-27.7-.06-6.52-3.75-10.16-10.24-10.31-2.78-.06-5.56-.01-8.74-.01v-5.93c0-19.84.03-39.67-.02-59.51-.02-6.85-3.68-10.46-10.46-10.58-2.76-.05-5.53-.01-6.97-.01-1.68-6.11-1.62-12.72-4.9-15.92-3.28-3.2-9.89-2.99-15.67-4.43,0-8.3.1-17.43-.03-26.56-.09-6.17-3.93-10.1-9.44-10.11-5.39,0-9.25,4.07-9.5,10.11-.1,2.33-.02,4.67-.03,7v20.93c-3.95,0-7.13-.19-10.27.04-4.95.36-8.65,4.45-8.72,9.28-.08,4.83,3.54,9.02,8.42,9.58,1.64.19,3.32.07,4.99.07,8.1.01,16.2.01,23.08.01,1.63,6.04,1.55,12.65,4.81,15.87,3.27,3.21,9.88,3.02,15.4,4.43v16.34c-5.66,1.5-12.36,1.35-15.49,4.61-3.29,3.44-3.16,10.14-4.62,15.77-14.52,0-29.67-.03-44.83.02-7.12.02-10.68,3.65-10.77,10.78-.03,2.49,0,4.98,0,8.21-9.71,0-18.84-.07-27.97.03-6.2.07-9.91,3.81-10.02,10.01-.11,6-.11,12,0,18,.11,5.92,4.14,10.02,9.57,9.97,5.42-.04,9.26-4.16,9.4-10.15.06-2.79.01-5.58.01-8.54h18.64v18.7c-3.01,0-5.66-.04-8.31.01-6.53.14-10.21,3.75-10.31,10.24-.09,6-.12,12.01.01,18.01.13,5.89,3.87,9.54,9.78,9.74,2.95.1,5.89.02,8.84.02v19.01c-9.51,0-18.66-.09-27.8.03-5.92.08-9.62,3.83-9.83,9.7-.11,2.94-.02,5.9-.02,9.28h-3.9c-8.17,0-16.33-.1-24.5.04-5.59.1-9.58,4.19-9.61,9.42-.02,5.23,3.97,9.26,9.53,9.53,1.99.09,3.99.02,5.99.02h22.49c0,3.55-.08,6.37.02,9.19.19,5.91,3.85,9.72,9.74,9.78,12.5.11,25,.11,37.49,0,5.65-.05,9.65-4.05,9.75-9.28.11-5.44-3.99-9.49-9.88-9.68-2.93-.09-5.87-.01-8.73-.01v-19.01c9.37,0,18.36.06,27.35-.03,6.5-.06,10.13-3.76,10.26-10.27.06-2.78.01-5.56.01-8.37h38.02c0,3.16-.08,5.98.01,8.8.19,5.88,4.26,9.97,9.69,9.86,5.23-.11,9.09-4.12,9.28-9.77.1-2.95.02-5.9.02-9.23,3.35,0,6.15.06,8.94-.02,5.95-.15,10.06-4.07,10.06-9.5-.01-5.42-4.12-9.32-10.08-9.48-2.91-.07-5.83-.01-8.65-.01v-18.67h37.74c0,9.47-.08,18.62.03,27.76.07,5.94,3.79,9.74,9.63,9.88,6.16.15,12.33.13,18.5.01,5.87-.12,9.96-4.26,9.84-9.7-.12-5.23-4.13-9.07-9.79-9.26ZM380.1,380.132h-56.57v-56.23h56.57v56.23Z"/>
      <path d="M251.93,190.412c-1.45-.01-2.9-.12-4.6-.19-.72-7.75,2.31-18.49-9.68-18.47-11.94.03-8.88,10.81-9.65,18.36h-37.47v-18.7c9.19,0,18.01.05,26.84-.02,7.05-.05,10.65-3.71,10.79-10.83.05-2.61.01-5.22.01-8.16,9.75,0,18.89.08,28.03-.04,5.87-.07,10-4.23,9.95-9.63-.05-5.2-4.07-9.09-9.75-9.31-2.94-.11-5.89-.02-9.23-.02,0-9.37.03-18.17-.01-26.97-.03-7.49-3.54-11.02-11.01-11.05-11.34-.04-22.68-.02-34.01,0-8.69.01-11.95,3.32-11.98,12.16-.02,8.46,0,16.92,0,25.55h-19.01c0-3.28.1-6.26-.03-9.23-.24-5.55-4.32-9.52-9.57-9.47-5.23.05-9.16,4.06-9.38,9.67-.1,2.67-.02,5.34-.02,8v39.36c-3.6,0-6.74-.16-9.85.04-5.26.32-9.08,4.39-9.13,9.45-.05,5,3.76,9.14,9.1,9.42,4.65.25,9.33.08,13.99.09h14.89v5.29c.03,11.11,2.68,13.72,13.9,13.72h43.12c0,3.46-.08,6.27.02,9.08.2,5.75,3.94,9.75,9.16,9.89,5.4.15,9.58-3.97,9.79-9.79.11-2.94.02-5.89.02-9.18h5.01c9.44-.04,14.02-3.2,13.98-9.64-.04-6.46-4.39-9.32-14.22-9.38ZM209.55,114.733h18.39v18.4h-18.39v-18.4Z"/>
      <path d="M304.18,294.762c.12,5.93-4.24,9.69-11.37,9.71-8.64.02-17.29,0-26.64,0,0,3.18.07,6.11-.01,9.04-.18,6.17-3.86,9.92-10.09,9.94-18.49.08-36.99.09-55.48,0-6.82-.04-10.3-3.74-10.42-10.64-.05-2.62-.01-5.24-.01-8.09h-18.65v18.77c2.94,0,5.89-.08,8.83.01,5.87.19,9.95,4.29,9.81,9.74-.13,5.23-4.14,9.1-9.81,9.22-5.66.12-11.33.08-17,.02-7.73-.07-11.12-3.55-11.19-11.4-.02-2.31,0-4.62,0-7.6h-22.57c-1.67,0-3.34.03-5,0-6.31-.13-10.51-4.02-10.43-9.63.07-5.59,4.27-9.32,10.69-9.36,8.83-.05,17.66-.02,27.31-.02v-20.36c0-16.42,1.23-17.65,17.49-17.65,3.33,0,6.66-.07,9.99.01,6.89.17,10.35,3.66,10.52,10.59.06,2.62.01,5.25.01,7.09,5.76,1.43,12.38,1.21,15.67,4.41,3.28,3.2,3.21,9.83,4.78,15.57h17.27v-18.67c-2.78,0-5.69.06-8.6-.01-5.97-.15-10.09-4.02-10.11-9.45-.03-5.42,4.08-9.37,10.02-9.53,2.8-.08,5.6-.01,8.98-.01,0-3.31-.08-6.25.02-9.2.19-5.86,4.29-9.95,9.73-9.8,5.23.13,9.05,4.14,9.23,9.81.1,2.82.02,5.64.02,8.75q17.36,1.94,19.48,19.45c8.7,0,17.47-.03,26.25,0,6.87.02,11.15,3.58,11.28,9.29Z"/>
      <path d="M133.08,66.952c0-6.83.12-13.67-.02-20.5-.46-22.09-16.85-42.54-38.7-44.9-17.59-1.9-35.69-2.11-53.29-.33C16.59,3.702.24,24.032.12,48.762c-.06,12.66-.19,25.33.04,37.99.42,22.87,16.62,42.87,39.26,45.44,17.09,1.95,34.66,2.02,51.81.53,21.06-1.83,37.09-17.09,40.66-36.89,1.69-9.42,1.22-19.23,1.73-28.86-.18-.01-.36-.01-.54-.02ZM114.03,86.542c-.5,15.99-12.74,27.52-28.84,27.82-4.35.08-8.71.06-13.06.04-1.98-.01-3.96-.02-5.94-.02-1.83,0-3.66.01-5.48.02h-.56c-1.77.02-3.53.03-5.29.03-2.39,0-4.78-.02-7.17-.09-16.04-.47-28.08-12.21-28.47-28.19-.32-12.99-.31-26,.01-39,.37-15.23,12.1-27.2,27.37-27.68,13.48-.42,27-.39,40.49.03,14.57.44,26.42,12.34,26.89,27.04.44,13.32.48,26.68.05,40Z"/>
      <path d="M475.16,47.382c-.34-23.39-16.6-42.68-39.78-46.09-8.61-1.27-17.58-.2-26.38-.2V.342c-6.67,0-13.33-.12-20,.02-25.82.52-46.42,21.16-46.77,46.97-.17,12.83-.15,25.67-.01,38.5.29,26.69,20.99,47.29,47.74,47.54,12.66.12,25.32.13,37.98-.01,26.06-.28,46.9-20.99,47.25-46.99.17-13,.16-26-.03-38.99ZM456.11,86.592c-.52,15.99-12.77,27.48-28.89,27.77-6.33.11-12.67.02-19,.02v-.04c-6.33,0-12.67.19-18.99-.04-15.5-.56-27.44-12.22-27.89-27.7-.39-13.15-.35-26.34-.03-39.49.38-15.23,12.14-27.18,27.42-27.64,13.48-.42,27-.39,40.49.03,14.56.45,26.38,12.39,26.85,27.09.42,13.32.47,26.68.04,40Z"/>
      <path d="M133.1,409.322c0-7,.17-14.01-.03-21-.68-22.44-17.24-42.21-39.52-44.75-15.47-1.77-31.25-1.15-46.89-.98-25.29.27-45.92,20.85-46.46,46.17-.3,13.83-.24,27.67.03,41.49.43,21.51,17.61,41.88,38.97,44.21,15.48,1.68,31.24,1.11,46.88,1.02,23.04-.12,42.45-16.51,46.05-39.27,1.4-8.81.99-17.91,1.41-26.88-.15,0-.29-.01-.44-.01ZM114.11,427.872c-.37,16.02-12.06,28.15-28.09,28.59-13.16.36-26.34.34-39.49-.05-15.14-.46-26.96-12.53-27.31-27.71-.29-13-.32-26.01-.03-39,.35-15.96,12.5-27.87,28.52-28.14,12.5-.21,25-.23,37.5-.01,16.56.3,28.48,12.29,28.9,28.82.15,6.33.02,12.67.02,19,0,6.17.11,12.34-.02,18.5Z"/>
      <path d="M133.14,275.742c.12,5.44-3.97,9.62-9.85,9.69-9.15.12-18.3.03-26.7.03-1.51,5.71-1.42,12.42-4.73,15.83-3.15,3.26-9.85,3.07-15.73,4.58,0,1.96.08,4.92-.02,7.87-.21,5.88-3.9,9.59-9.82,9.71-6.16.13-12.33.14-18.49,0-5.62-.13-9.62-4.14-9.67-9.37-.06-5.24,3.92-9.33,9.47-9.58,2.96-.13,5.94-.02,9.22-.02v-19.02c-2.44,0-4.73.01-7.01,0-7.29-.02-11.61-3.5-11.68-9.39-.07-5.95,4.24-9.59,11.45-9.61,8.64-.02,17.28,0,26.23,0v-38.02c-8.75,0-17.37.02-25.99-.01-7.31-.03-11.67-3.58-11.67-9.42,0-5.9,4.38-9.54,11.53-9.58,2.3-.01,4.6,0,7.45,0,0-9.18-.03-17.96,0-26.74.03-7.77,3.51-11.24,11.3-11.27,5.5-.03,11-.09,16.5.02,6.06.11,10.17,3.97,10.18,9.37.01,5.4-4.12,9.4-10.01,9.59-2.8.09-5.6.01-8.85.01v19.02h20.27c2.83,0,5.67-.12,8.5.06,5.26.34,9.14,4.45,9.1,9.42-.04,5.01-3.91,9.14-9.11,9.46-3.11.19-6.25.03-9.62.03v17.69c5.41,1.41,12.11,1.3,15.53,4.59,3.27,3.15,3.1,9.84,4.65,15.78,1.89,0,4.84-.08,7.78.02,5.66.18,9.67,4.03,9.79,9.26Z"/>
      <path d="M266.17,371.233c-.12,5.23-4.13,9.11-9.78,9.25-4.66.12-9.32.03-13.99.03h-14.23v21.92c0,2.33.11,4.67-.04,6.99-.33,5.23-4.39,9.08-9.42,9.1-5.03.03-9.18-3.81-9.5-9.01-.19-3.12-.04-6.26-.04-9.99-8.79,0-17.23.01-25.66,0-9.14-.02-12.33-3.19-12.35-12.23-.02-4.83-.05-9.66,0-14.49.09-7.76,3.59-11.23,11.32-11.3,2.32-.01,4.64,0,6.06,0,1.77-6.11,2.91-11.49,5.02-16.45.62-1.46,3.98-2.32,6.14-2.43,4.5-.24,7.88,2.31,8.9,6.55.9,3.79.59,7.86.83,12.06h18.74c0-2.81-.06-5.73.01-8.64.15-5.96,4.04-10.07,9.45-10.09,5.42-.02,9.36,4.09,9.53,10.02.07,2.8.01,5.6.01,8.98,3.29,0,6.24-.07,9.17.02,5.87.19,9.95,4.28,9.83,9.71Z"/>
      <path d="M323.18,9.733c.06,5.61-4.13,9.57-10.45,9.59-19.83.05-39.66.02-59.49.02h-6.07c0,3.48.07,6.29-.01,9.1-.19,5.93-3.82,9.74-9.66,9.87-6.16.14-12.33.16-18.49-.01-6.05-.16-9.65-3.75-9.8-9.71-.15-6-.15-12-.01-18,.15-6.49,3.87-10.22,10.34-10.24,31.16-.05,62.32-.05,93.47,0,6,.01,10.11,3.96,10.17,9.38Z"/>
      <path d="M475.22,466.042c.01,5.77-4.25,9.5-11.04,9.51-36.97.02-73.95.02-110.92,0-6.79-.01-11.06-3.73-11.06-9.49s4.26-9.49,11.05-9.5c15.12-.03,30.25-.01,45.68-.01,1.08-15.29,3.2-19.17,10.02-19,6.62.16,8.51,3.8,9.53,19h5.2c13.49,0,26.98-.03,40.47.01,6.8.01,11.06,3.71,11.07,9.48Z"/>
      <path d="M475.2,180.812c.01,5.57-4.23,9.53-10.49,9.59-8.96.07-17.92.02-27.5.02,0,3.27.12,6.21-.02,9.14-.27,5.7-4.14,9.74-9.23,9.84-5.52.1-9.46-3.84-9.72-9.83-.12-2.81-.02-5.63-.02-8.97h-19.02c0,3.1.12,6.04-.02,8.98-.28,5.69-4.16,9.73-9.25,9.82-5.51.09-9.52-3.85-9.68-9.85-.16-5.99-.12-11.99-.02-17.98.1-6.43,3.83-10.11,10.37-10.14,15.29-.06,30.59-.02,46.62-.02,0-3.14-.1-6.07.03-8.98.24-6,4.18-10.06,9.57-10.01,5.49.05,9.18,3.99,9.38,10.16.09,2.79.02,5.58.02,8.83,3.09,0,5.71-.04,8.33.01,6.47.11,10.65,3.81,10.65,9.39Z"/>
      <path d="M38.11,295.052c-.04,5.41-4.17,9.31-10.15,9.4-6,.09-12,.12-17.99-.01-5.92-.12-9.8-3.82-9.82-9.68-.08-25.16-.09-50.32,0-75.48.03-5.87,4.32-9.94,9.75-9.81,5.21.12,8.96,4.09,9.19,9.87.11,2.8.02,5.62.02,8.79,1.71.12,3.14.28,4.58.3,10.05.08,14.51,3.05,14.42,9.64-.08,6.44-4.45,9.32-14.18,9.38h-4.58v38.02c2.93,0,5.86-.07,8.78.01,5.91.17,10.03,4.16,9.98,9.57Z"/>
      <path d="M475.22,256.832c.07,5.24-3.91,9.51-9.44,9.57-12.67.15-25.34.14-38,.01-5.62-.06-9.38-3.87-9.52-9.47-.16-6.33-.17-12.67,0-19,.14-5.6,3.91-9.32,9.53-9.46,6.16-.15,12.33-.13,18.5-.01,6.16.11,9.76,3.86,9.92,10.11.07,2.79.01,5.58.01,8.87,3.65,0,6.48-.09,9.31.02,5.62.21,9.62,4.13,9.69,9.36Z"/>
      <path d="M323.16,66.372c-.11,6.17-3.83,9.9-10.04,9.97-9.12.1-18.24.02-27.95.02,0,3.73.13,6.72-.02,9.7-.28,5.49-4.47,9.43-9.71,9.31-5.03-.13-9.06-4.01-9.21-9.29-.19-6.16-.12-12.32-.03-18.48.09-6.48,3.78-10.16,10.29-10.22,8.98-.08,17.96-.02,27.7-.02,0-3.12-.07-6.03.01-8.95.15-5.94,4.06-10.05,9.48-10.06,5.41,0,9.39,4.1,9.49,10.04.1,5.99.11,11.99-.01,17.98Z"/>
      <path d="M323.07,143.852c-.09,4.88-4.24,8.31-9.38,8.52-2.96.13-5.93.03-9.51.03,0,3.51.11,6.33-.02,9.14-.28,5.7-4.13,9.74-9.22,9.84-5.52.1-9.55-3.83-9.71-9.81-.17-5.99-.12-11.98-.03-17.97.1-6.46,3.81-10.06,10.33-10.2,2.64-.05,5.29-.01,8.66-.01,0-7.97-.01-15.72,0-23.46,0-2-.13-4.01.07-5.99.49-4.9,4.59-8.55,9.42-8.56,4.82-.01,9.3,3.64,9.39,8.53.24,13.31.23,26.63,0,39.94Z"/>
      <path d="M475.2,313.342c-.1,6.43-3.84,10.01-10.4,10.13-2.64.05-5.29.01-8.58.01,0,3.23.07,6.17-.02,9.1-.17,5.89-4.21,10-9.64,9.9-5.24-.08-9.12-4.09-9.32-9.73-.1-2.82-.02-5.65-.02-9.27-3.49,0-6.45.09-9.4-.02-5.59-.22-9.58-4.22-9.6-9.45-.02-5.23,3.97-9.32,9.53-9.5,4.67-.15,9.34-.03,14-.04h14.47c0-3.31-.08-6.26.02-9.2.19-5.65,4.05-9.68,9.27-9.79,5.41-.13,9.57,3.99,9.69,9.85.12,6,.1,12.01,0,18.01Z"/>
      <path d="M171.13,218.842c.01,5.2-4,9.3-9.51,9.55-2.96.14-5.93.03-9.48.03,0,9.83.12,19.27-.04,28.7-.1,5.3-4.15,9.19-9.18,9.33-4.82.13-9.06-3.46-9.7-8.29-.15-1.15-.07-2.33-.07-3.49-.01-2.16-.01-4.31-.01-7.22-3.1,0-6.02.06-8.94-.02-5.94-.15-10.05-4.07-10.05-9.49s4.11-9.33,10.05-9.49c2.79-.07,5.59-.01,8.96-.01,0-3.58-.12-6.4.02-9.22.3-5.95,3.93-9.62,9.8-9.76,6.16-.14,12.33-.14,18.49.02,5.65.14,9.66,4.17,9.66,9.36Z"/>
      <path d="M209.16,47.792c.03,5.41-4.07,9.43-9.98,9.54-5.82.11-11.64.1-17.46,0-6.89-.11-10.41-3.66-10.55-10.48-.06-2.64-.01-5.27-.01-8.51-3.52,0-6.34.08-9.15-.01-5.86-.19-9.95-4.24-9.85-9.67.09-5.22,4.09-9.17,9.71-9.29,5.98-.13,11.98-.12,17.96,0,6.59.13,10.1,3.67,10.31,10.24.08,2.65.01,5.31.01,8.74,3.09,0,6-.06,8.91.01,5.95.15,10.06,4.02,10.1,9.43Z"/>
      <path d="M304.13,256.992c-.06,5.53-4.3,9.5-9.52,9.46-5.22-.04-9.19-4.04-9.4-9.62-.12-2.95-.02-5.91-.02-9.39-3.37,0-6.32.09-9.26-.01-5.63-.2-9.63-4.05-9.75-9.28-.11-5.42,3.97-9.5,9.82-9.69,2.82-.1,5.63-.02,9.2-.02,0-3.54-.14-6.51.03-9.46.34-5.64,4.34-9.56,9.51-9.54,5.32.03,9.3,3.83,9.38,9.62.16,12.64.15,25.29.01,37.93Z"/>
      <path d="M228.16,466.132c-.04,5.24-4.04,9.26-9.64,9.39-6.17.14-12.34.15-18.5-.01-6.05-.16-9.66-3.74-9.81-9.69-.16-6.16-.14-12.34-.02-18.5.11-5.65,4.03-9.66,9.26-9.77,5.43-.12,9.51,3.97,9.7,9.85.09,2.81.01,5.63.01,9.15,3.58,0,6.56-.1,9.52.03,5.55.24,9.53,4.32,9.48,9.55Z"/>
      <path d="M38.1,161.902c-.05,5.21-4.05,9.23-9.59,9.47-2.96.13-5.92.02-9.4.02,0,3.46.06,6.12-.01,8.78-.15,5.97-3.95,10.09-9.35,10.23-5.37.14-9.48-3.99-9.6-9.93C.02,174.322,0,168.152.15,162.003c.14-5.62,3.85-9.41,9.42-9.55,6.32-.17,12.65-.16,18.97.01,5.6.15,9.61,4.27,9.56,9.44Z"/>
      <path d="M171.12,466.092c-.23,5.52-4.31,9.49-9.53,9.46-5.22-.03-9.27-4.02-9.4-9.59-.15-6.32-.16-12.64,0-18.95.15-5.53,4.3-9.5,9.53-9.47,5.21.04,9.19,4.03,9.41,9.6.12,2.98.02,5.98.02,8.97,0,3.33.11,6.66-.03,9.98Z"/>
      <path d="M361.18,161.962c-.09,5.22-4.1,9.19-9.68,9.41-3.16.13-6.33.03-9.5.03v-.02c-3.16,0-6.34.15-9.49-.03-5.42-.32-9.22-4.22-9.29-9.25-.06-5.25,3.88-9.48,9.42-9.65,6.33-.18,12.67-.16,19,.01,5.61.15,9.62,4.32,9.54,9.5Z"/>
      <path d="M418.2,219.042c-.06,5.16-4.44,9.44-9.6,9.38-5.16-.06-9.44-4.44-9.38-9.6.06-5.16,4.44-9.44,9.6-9.38,5.16.06,9.44,4.44,9.38,9.6Z"/>
      <path d="M475.21,218.983c-.02,5.16-4.38,9.47-9.54,9.44-5.16-.02-9.46-4.38-9.43-9.54.02-5.16,4.37-9.46,9.53-9.44,5.16.03,9.47,4.38,9.44,9.54Z"/>
      <path d="M190.14,237.852c.05,5.16-4.23,9.53-9.39,9.58-5.16.05-9.53-4.23-9.58-9.4-.05-5.16,4.23-9.53,9.4-9.58,5.16-.05,9.52,4.24,9.57,9.4Z"/>
      <path d="M133.12,200.162c-.12,5.16-4.56,9.38-9.71,9.25-5.16-.13-9.38-4.57-9.25-9.72.13-5.16,4.57-9.38,9.72-9.25,5.15.13,9.37,4.57,9.24,9.72Z"/>
      <path d="M342.18,276.152c-.1,5.15-4.52,9.4-9.67,9.3-5.16-.1-9.4-4.52-9.3-9.67.1-5.16,4.51-9.41,9.67-9.31,5.15.11,9.4,4.52,9.3,9.68Z"/>
      <path d="M133.13,162.092c-.11,5.16-4.52,9.4-9.67,9.3-5.16-.1-9.4-4.51-9.3-9.67.1-5.16,4.51-9.4,9.67-9.3,5.15.1,9.4,4.52,9.3,9.67Z"/>
      <path d="M285.16,123.682c.11,5.16-4.12,9.58-9.28,9.69-5.15.11-9.57-4.12-9.68-9.28-.12-5.15,4.12-9.58,9.28-9.69,5.15-.11,9.57,4.13,9.68,9.28Z"/>
      <path d="M323.18,199.942c-.01,5.16-4.36,9.49-9.51,9.48-5.16-.02-9.48-4.36-9.47-9.52.01-5.15,4.35-9.48,9.51-9.47,5.16.01,9.48,4.36,9.47,9.51Z"/>
      <path d="M361.18,352.202c-.11,5.16-4.53,9.39-9.69,9.28-5.15-.11-9.39-4.53-9.28-9.69.11-5.15,4.54-9.39,9.69-9.28,5.15.11,9.39,4.54,9.28,9.69Z"/>
      <path d="M95.13,66.812c.02,15.77-12.81,28.59-28.58,28.56-15.74-.03-28.51-12.93-28.42-28.71.08-15.74,13.03-28.45,28.83-28.31,15.51.14,28.15,12.91,28.17,28.46Z"/>
      <path d="M437.21,66.702c.07,15.78-12.71,28.66-28.47,28.67s-28.57-12.83-28.53-28.6c.04-15.75,12.94-28.51,28.72-28.42,15.51.09,28.22,12.82,28.28,28.35Z"/>
      <path d="M95.13,409.072c-.02,15.75-12.9,28.54-28.67,28.46-15.73-.07-28.46-13.01-28.33-28.8.12-15.52,12.87-28.18,28.42-28.22,15.77-.03,28.6,12.79,28.58,28.56Z"/>
    </g>
  </g>
</svg>