<?xml version="1.0" encoding="UTF-8"?>
<svg id="Layer_2" xmlns="http://www.w3.org/2000/svg" width="650" height="687.13" viewBox="0 0 650 687.13">
  <g id="Layer_1-2" data-name="Layer_1">
    <g>
      <path d="M380.37,499.52c.03.06.07.12.1.19v-.35l-.1.16ZM156.4,425.55c0,9.59.03,19.19.05,28.8.06-2.18.12-4.36.2-6.55.25-7.41.04-14.83-.25-22.25Z" fill="#fff"/>
      <path d="M380.47,499.362v.343c-.03-.061-.071-.121-.101-.182l.101-.162Z" fill="#fff"/>
      <path d="M614.07,412.33v9.18c0,.12-.01.23-.03.35-.58,3.33-1.15,6.66-1.76,10.24-.16.89-.88,1.58-1.78,1.68-4.19.45-8.67.96-13.17,1.37-8.91.8-14.21-1.81-15.19-9.49-1.29-10.16-.42-20.53-1.39-30.74-.79-8.26-1.83-16.72-4.75-24.56-3.68-9.89-12.72-16.21-24.82-18.05-9.64-1.46-19.53-2.46-29.3-2.34-19.3.23-31.01,10.2-32.52,28.01-1.32,15.54-1.25,31.16-1.74,46.76-.48,15.79-1.47,31.6-1.22,47.38.62,38.65,1.84,77.29,2.78,115.94.07,2.86-.07,5.72-.2,8.58-1.11,23.21-27.05,35.2-50.82,23.44-12.16-6.02-19.62-15.39-24.8-26.21-8.29-17.31-5.86-35.39-5.84-53.29,0-.45.34-.81.78-.85h.02c.48-.05.89.3.93.78.26,3.13.59,6.25.7,9.39.58,16.28,8.14,29.88,21.93,40.94,11.26,9.01,28.12,11.42,40.41,6.02,9.35-4.1,14.52-10.55,14.2-19.73-.53-16.04-1.14-32.06-1.73-48.59-.04-1.16-1.05-2.06-2.2-1.95-7.89.72-15.55,1.7-23.23,1.84-18.3.33-36.63.12-54.95.22-5.65.03-9.24-2.4-11.53-6.49-4.17-7.44-8.23-14.92-12.34-22.38-.01-.02-.03-.03-.04-.05-.1-.14-.2-.28-.3-.41-6.41-6.43-12.56-13.08-19.32-19.23-10.26-9.33-20.89-18.36-32.06-28.07-.97-.85-2.46-.59-3.1.52-11.28,19.71-24.83,35.98-52.72,38.26-1.18.1-2.2-.83-2.2-2.02v-18.7c0-.86.55-1.63,1.37-1.91,8.81-3.03,17.44-5.79,25.81-9.04,5.93-2.31,9.37-6.35,8.05-12.37-.08-.36-.16-.81.01-1.13,5.19-9.11-2.56-13.68-8.94-18.82-5.7-4.59-11.77-8.95-16.64-14.11-12.14-12.87-24.04-25.94-35.38-39.33-7.47-8.81-16.59-13.38-29.49-12.56-16.94,1.06-33.9,1.85-50.84,2.58-5.15.24-6.72,2.09-6.61,6.45.32,12.35.11,24.7-.54,37.06v-68.13c0-.46.15-.91.43-1.26s.34-.43.4-.51c-.05.18-.16.51-.14.51,2.13.62,4.28,1.79,6.4,1.73,22.08-.63,44.18-1.08,66.22-2.37,13.23-.75,21.71,4.03,27.54,13.52.01.01.01.02.02.03,1.06,1.7,3.7.93,3.72-1.07.06-4.46.12-8.48-.1-12.49-1.18-21.87-2.28-43.75-3.91-65.59-.63-8.46-2.02-16.82-4.84-24.85-1.83-5.22-4.27-10.29-7.48-15.16-3.23-4.89-6.85-9.38-11.03-13.26-7.96-7.36-17.95-12.5-31.1-13.93-15.07-1.64-28.16,2.77-39.89,10.52-1.66,1.1-3.25,2.23-4.75,3.4-10.15,7.89-16.75,17.41-19.68,28.37-1.04,3.84-1.62,7.85-1.75,12.03-1.12,36.36-1.65,72.74-2.32,109.09-.51,27.02,2.37,54.2-4.59,80.89-2.4,9.22-6.31,18.18-9.97,27.13-2.06,5.08-5.93,9.08-12.84,9.61-7.22.57-11.95-2.9-15.05-7.87-6.37-10.26-9.46-21.33-9.65-32.91-.17-10.1-.05-20.21-.04-30.56,0-1.28,1.18-2.23,2.44-1.98,4.38.87,5.67,4.02,5.92,7.95.52,8.54.9,17.11,1.56,25.64.18,2.44,1.14,4.85,1.69,7.28,1.05,4.64,4.24,7.39,9.71,8.23,5.51.85,10.52-.75,12.54-4.79,3.09-6.19,6.43-12.89,6.62-19.44,1.03-35.37,1.14-70.77,1.54-106.16.31-28.17-.21-56.44,5.79-84.15,1.38-6.39,3.11-12.75,5.28-19.07,1.1-3.2,2.33-6.31,3.73-9.29,9-19.41,24.49-33.79,51.52-38.13.16-.03.31-.13.44-.25.36-.32.83-.48,1.31-.48h9.74c.14,0,.27.01.41.04,16.69,3.29,30.04,10.7,39.41,23.12,3.79,5.02,6.83,10.28,9.17,15.71,3.48,8.1,5.41,16.58,5.97,25.28.07,1.05.13,2.09.19,3.14,2.22,35.83,2.93,71.76,5.91,107.53.74,8.86,6.18,18.71,12.95,25.63,12.03,12.28,26.43,22.87,40.29,34.33.91.75,2.27.56,2.95-.4,12.04-17.12,27.15-31.1,53.73-31.66,1.12-.02,2.04.9,2.04,2.02v19.85c0,1.09-.86,1.97-1.94,2.02-11.89.63-22.99,3.51-32.56,10.13-8.57,5.94-8.93,11.43-1.23,17.86,11.5,9.6,22.89,19.3,34.09,29.14,2.9,2.56,4.77,5.94,7.41,8.73,7.54,7.96,15.25,15.78,22.84,23.7,1.32,1.38,3.55,3.06,3.35,4.38-.71,4.71,1.9,5.58,6.52,5.41,21.42-.84,42.85-1.56,64.26-2.39,1.54-.06,3.06-.47,4.95-.9.93-.21,1.59-1.03,1.59-1.98-.01-12.87-.11-25.64.02-38.4.34-31.8.61-63.61,1.36-95.4.17-6.78,1.71-13.63,3.58-20.27,3.35-11.92,12.92-19.13,27.01-19.63,12.34-.45,25.1.28,37.14,2.57,17.9,3.41,25.34,15.56,27.25,29.91,1.37,10.36.73,20.9,1.2,31.36.19,4.34.5,8.75,1.55,12.99,1.56,6.36,5.41,8.35,13.06,7.9,4.83-.28,9.67-.39,14.51-.54,1.14-.03,2.09.88,2.09,2.02Z"/>
      <path d="M562.56,442.7c-2.12-2.03-4.23-3.18-4.77-4.72-1.67-4.89-2.16-10.13-4.25-14.87-2.35-5.34-4.8-11.24-9.29-15.16-6.82-5.96-18.02-2.53-19.21,5.71-2.07,14.33-3.92,28.78-4.1,43.19-.44,35.83.56,71.67.09,107.48-.3,23.8-1.27,47.67-11.56,70.34-.93,2.05-1.88,4.08-2.84,6.12-1.04,2.2-2.08,4.4-3.09,6.61-3.33,7.26-7.54,13.66-12.74,19.15-9.59,10.16-22.5,17.17-39.2,20.58h-12.08c-17.36-3.63-29.56-10.89-37.94-20.58-6.36-7.36-10.51-16.12-13.03-25.76-1.04-3.97-1.81-8.09-2.33-12.32-3.67-29.62-4.41-59.52-5.87-89.33-.65-13.11.03-26.28.12-39.41.04,7.84-.17,15.7.21,23.55,1.13,22.81,2.29,45.64,3.89,68.44,1.09,15.68,4.12,31.1,13.64,44.92.98,1.42,1.99,2.81,3.06,4.15,8.73,11.1,20.29,19.34,36.82,21.32,21.86,2.63,38.59-5.93,52.13-19.58.57-.58,1.13-1.16,1.66-1.74,12.66-13.58,18.28-29.62,18.68-46.84.88-36.93,1.11-73.88,1.54-110.83.28-23.98-1.57-48.05,3.99-71.8,1.48-6.33,3.41-12.61,5.54-18.8,2.58-7.56,7.25-10.83,15.44-11.43,10.34-.77,16.42,1.23,19.84,8.91,3.04,6.82,4.76,14.3,5.43,21.6.89,9.82.22,19.77.22,31.1Z"/>
      <path d="M154.586,489.404c1.384-11.614,1.555-23.34,1.868-35.055.02,15.462.02,30.924-.182,46.386-.081,6.221-1.323,12.533-2.959,18.623-3.343,12.473-12.503,20.047-27.359,20.684-11.675.505-23.723-.333-35.186-2.323-15.3-2.656-24.602-12.008-26.905-24.855-2.07-11.574-1.707-23.451-2.515-35.196-.323-4.727-.434-9.524-1.485-14.149-1.555-6.847-5.888-9.039-13.998-8.322-5.262.465-10.574.555-15.866.818v-10.301c.687-4.242,1.373-8.483,2.121-13.109,5.11-.495,10.584-1.212,16.088-1.515,6.858-.374,11.695,2.767,12.321,8.302,1.121,9.988.768,20.088,1.565,30.116.626,7.716.98,15.644,3.373,23.027,4.02,12.372,13.967,20.249,29.328,21.996,8.837,1,17.785,1.838,26.673,1.818,19.027-.05,31.046-9.493,33.116-26.945Z"/>
      <path d="M156.646,447.804c-.081,2.181-.141,4.363-.192,6.544-.02-9.605-.051-19.209-.051-28.804.283,7.423.495,14.846.242,22.259Z"/>
      <path d="M235.22,326.92c-.64-20.19-4.17-31.86-14.33-43.55-10.55-12.14-23.93-19.42-42.57-16.19-14.78,2.55-22.69,12.57-21.91,25.41.76,12.33.18,24.71.18,37.07-.51.1-1,.2-1.51.3,0-19.21.01-38.43,0-57.64-.01-10.82,2.59-20.33,13.17-25.95,1.78-.95,3.78-1.78,6.03-2.49,10.14-3.2,21.33-2.17,31,2.51,4.13,2,7.98,4.66,11.36,7.94,13.47,13.09,18.93,28.63,19,45.77.04,8.95.01,17.89-.42,26.82Z"/>
      <path d="M275.931,576.248c-.051,11.978-11.099,21.431-25.047,21.441-14.21,0-25.178-9.615-25.077-21.997.101-12.119,10.887-21.279,25.057-21.279,14.432-.01,25.127,9.322,25.067,21.835Z"/>
      <path d="M408.909,335.64c-.051.687-.091,1.374-.141,2.06v-2.05l.141-.01Z"/>
      <path d="M424.523,292.435c-.111,12.039-11.796,21.734-25.905,21.512-13.816-.232-24.956-9.968-24.885-21.774.071-12.008,11.806-21.754,25.895-21.502,13.856.252,24.996,9.988,24.895,21.764Z"/>
      <path d="M242.668,487.121c0-18.821.077-39.073-.026-59.337-.051-8.823-.587-17.634-.613-26.457-.026-6.883,3.294-10.496,9.168-10.177,5.925.332,9.066,3.601,9.194,9.692.932,45.075,2.005,90.162,2.656,135.249.051,3.231-2.068,7.406-4.546,9.538-4.188,3.588-10.113,1.749-12.411-3.345-6.078-13.471-12.194-26.943-17.481-40.733-1.162-3.039-.153-8.683,2.069-10.803,2.605-2.49,7.636-2.464,11.99-3.626Z"/>
      <path d="M407.514,381.504c0,18.821-.077,39.073.026,59.337.051,8.823.587,17.634.613,26.457.026,6.883-3.295,10.496-9.168,10.177-5.925-.332-9.066-3.601-9.194-9.692-.932-45.075-2.005-90.162-2.656-135.249-.051-3.231,2.068-7.406,4.546-9.538,4.188-3.588,10.113-1.749,12.411,3.345,6.078,13.471,12.194,26.943,17.481,40.733,1.162,3.039.153,8.683-2.069,10.803-2.605,2.49-7.636,2.464-11.99,3.626Z"/>
    </g>
    <path d="M177.51,21.15c-.17-.02-.34-.02-.52-.02h.35c.06,0,.12,0,.17.02Z"/>
    <path d="M227.415,103.327v52.429c0,12.308-8.846,19.021-39.502,19.021s-39.496-6.713-39.496-19.021v-52.429c0-12.308,8.846-19.021,39.496-19.021s39.502,6.713,39.502,19.021ZM172.747,103.488v52.108c0,6.713,4.74,8.951,15.166,8.951,10.75,0,15.49-2.238,15.49-8.951v-52.108c0-6.874-4.74-8.953-15.49-8.953-10.426,0-15.166,2.078-15.166,8.953Z"/>
    <path d="M343.503,83.197c-30.648,0-39.481,6.714-39.481,19.02v52.443c0,5.338,1.652,9.616,6.037,12.772,1.25.889,2.732,1.694,4.427,2.393,6.142,2.542,15.441,3.855,29.017,3.855,15.165,0,24.993-1.631,31.051-4.787,4.808-2.499,7.244-5.931,8.091-10.273.254-1.25.36-2.563.36-3.961v-52.443c0-12.306-8.832-19.02-39.502-19.02ZM359.007,154.491c0,6.714-4.744,8.959-15.504,8.959-7.519,0-12.094-1.165-14.022-4.363-.784-1.207-1.144-2.732-1.144-4.596v-52.104c0-6.884,4.744-8.959,15.165-8.959,10.76,0,15.504,2.076,15.504,8.959v52.104Z"/>
    <path d="M588.498,80.613c-30.648,0-39.502,6.714-39.502,19.02v52.422c0,6.926,2.796,12.094,10.739,15.292,6.142,2.457,15.377,3.728,28.763,3.728,9.997,0,17.707-.72,23.51-2.118l12.878-12.878c1.44-1.44,2.478-3.113,3.113-4.893v-51.553c0-12.306-8.853-19.02-39.502-19.02ZM603.981,151.907c0,6.714-4.723,8.938-15.483,8.938-9.489,0-14.254-1.842-15.017-7.244-.106-.53-.148-1.101-.148-1.695v-52.125c0-6.862,4.744-8.938,15.165-8.938,10.76,0,15.483,2.076,15.483,8.938v52.125Z"/>
    <path d="M520.708,56.804h10.501c.347,0,.673-.022.976-.064,3.059-.301,4.795-2.084,4.795-5.027v-17.767c0-20.41-7.724-32.226-34.214-33.751-1.953-.129-4.035-.194-6.205-.194-31.502,0-40.419,12.01-40.419,33.945v101.555c0,21.935,8.917,33.945,40.419,33.945,2.17,0,4.252-.065,6.205-.172,26.491-1.547,34.214-13.363,34.214-33.773v-47.093c0-3.223-2.104-5.07-5.771-5.07h-18.008c-3.688,0-5.532,1.848-5.532,5.07v6.252c0,3.223,1.844,4.834,5.532,4.834h1.736v36.007c0,9.346-2.43,15.576-12.15,17.295-1.822.322-3.884.494-6.227.494-14.97,0-18.376-6.703-18.376-17.789V33.945c0-11.086,3.406-17.789,18.376-17.789,2.343,0,4.404.172,6.227.494,9.72,1.719,12.15,7.949,12.15,17.295v17.767c0,3.244,2.104,5.092,5.771,5.092Z"/>
    <path d="M252.108,174.198c-4.643,0-8.416-2.978-8.416-6.659v-46.037c-.351-8.693-.592-17.405-.758-26.116-.074-3.311-.129-6.64-.148-9.969h-6.677c-.703,0-1.406.056-2.109-.037-2.164-.388-3.329-2.293-3.2-5.752.129-3.348,1.406-4.753,3.477-4.753,2.811-.019,5.623.019,8.434.037-.018-12.022.111-24.045.111-35.994,0-.943.555-1.813,1.406-2.22l12.503-6.067,5.345-2.589c.407-.093.795-.185,1.221-.259,2.497.166,4.661,1.535,5.937,3.533.314.499.425,1.11.351,1.701-.111.925-.167,1.887-.148,2.904v3.385c.111,11.375.222,22.75.315,34.125,4.495-.407,9.008-.851,13.502-1.295,1.942-.167,3.718-.296,4.421,3.329.703,3.625-.481,5.567-2.405,7.139-2.737,2.238-5.475,4.513-8.212,6.806-2.386,1.979-4.754,3.977-7.139,5.937.092,12.614.185,25.229.296,37.843.092,4.513.222,9.082.481,13.613.074,1.221.148,2.423.24,3.644.074.999.24,1.905.499,2.719,1.054,3.366,3.625,5.086,8.083,4.679,1.036-.111,2.109-.166,3.2-.166.777,0,1.554.018,2.331.037,1.036.019,2.053.037,3.089.074,5.271,0,8.009,2.941,8.471,7.953.518,5.013-2.478,7.177-7.084,7.343-.647.019-1.313.056-1.979.093-1.609.056-3.218.148-4.828.259l-30.611.758Z"/>
    <path d="M138.729,11.913v154.091c0,3.07-2.489,5.559-5.559,5.559h-12.181c-3.07,0-5.559-2.489-5.559-5.559V54.257c0-4.952-5.988-7.433-9.49-3.931l-11.098,11.098-12.548,12.548c-2.171,2.171-5.691,2.171-7.861,0l-12.548-12.548-11.098-11.098c-3.502-3.502-9.49-1.022-9.49,3.931v111.747c0,3.07-2.489,5.559-5.559,5.559h-12.181c-3.07,0-5.559-2.489-5.559-5.559V11.913c0-3.07,2.489-5.559,5.559-5.559h13.912c1.474,0,2.888.586,3.931,1.628l33.032,33.032c2.171,2.171,5.691,2.171,7.861,0L115.327,7.982c1.042-1.042,2.456-1.628,3.931-1.628h13.912c3.07,0,5.559,2.489,5.559,5.559Z"/>
    <path d="M369.367,490.638c.803,27.968,2.005,55.922,3.634,83.854.805,13.801,1.712,27.597,2.721,41.385.919,12.553.535,26.32,6.52,37.729,3.561,6.788,13.841.776,10.281-6.009-2.758-5.257-3.304-11.121-3.774-16.95-.53-6.562-1.007-13.128-1.476-19.694-.961-13.461-1.825-26.93-2.592-40.403-1.515-26.619-2.642-53.259-3.407-79.911-.219-7.645-12.127-7.677-11.906,0h0Z"/>
    <path d="M215.495,279.08c11.194,20.136,12.271,43.539,11.792,66.066-.163,7.665,11.744,7.663,11.906,0,.524-24.679-1.182-50.065-13.418-72.075-3.723-6.698-14.011-.7-10.281,6.009h0Z"/>
    <path d="M402.398,509.244c9.266,4.939,18.973,8.938,29.039,11.929,7.36,2.187,10.505-9.3,3.165-11.481-9.111-2.707-17.807-6.258-26.195-10.729-6.759-3.603-12.781,6.671-6.009,10.281h0Z"/>
    <path d="M406.819,524.668c.493,21.12.81,42.916,6.517,63.414,2.222,7.98,5.86,15.868,12.633,20.958,7.579,5.696,17.218,6.415,26.367,6.774,7.662.301,7.649-11.606,0-11.906-7.106-.279-15.388-.409-20.815-5.703-5.213-5.086-6.85-13.114-8.303-19.961-3.734-17.587-4.075-35.669-4.493-53.576-.179-7.649-12.085-7.677-11.906,0h0Z"/>
    <path d="M471.705,521.711c.016,15.741.032,31.482.048,47.223.007,6.581,1.405,15.081-1.827,21.094-2.826,5.257-8.531,8.344-13.766,10.689-6.98,3.127-.932,13.39,6.009,10.281,6.354-2.846,12.336-6.816,16.448-12.536,4.672-6.498,5.052-13.922,5.05-21.657-.006-18.365-.037-36.729-.055-55.094-.008-7.661-11.914-7.674-11.906,0h0Z"/>
    <path d="M477.339,521.716c-.607,22.086-1.695,44.152-3.264,66.19-.544,7.646,11.364,7.612,11.906,0,1.569-22.038,2.657-44.105,3.264-66.19.211-7.664-11.696-7.659-11.906,0h0Z"/>
    <path d="M479.385,572.425c.245,5.668.432,11.47-.588,17.077-.814,4.474-2.28,10.867-6.402,13.482-6.453,4.093-.486,14.401,6.009,10.281,12.968-8.226,13.477-27.208,12.887-40.839-.33-7.633-12.238-7.674-11.906,0h0Z"/>
    <path d="M167.707,271.286c9.725-3.86,20.603-6.445,31.14-5.534s14.566,10.231,17.687,19.108c7.246,20.611,9.248,42.489,6.376,64.115-.427,3.214,3.042,5.923,5.953,5.953,3.566.037,5.532-2.779,5.953-5.953,3.325-25.035.343-51.579-9.748-74.841-4.389-10.117-11.529-18.313-22.927-19.926-12.485-1.767-26.001.992-37.599,5.596-7.037,2.794-3.97,14.313,3.165,11.481h0Z"/>
    <path d="M211.683,270.071c15.347,20.673,6.389,48.403,9.399,72.02.41,3.215,2.443,5.917,5.953,5.953,2.904.03,6.36-2.764,5.953-5.953-3.305-25.928,5.894-55.238-11.025-78.029-4.516-6.084-14.856-.153-10.281,6.009h0Z"/>
    <path d="M224.719,348.286c-.476,41.036-.952,82.071-1.427,123.107-.089,7.664,11.817,7.669,11.906,0,.476-41.036.952-82.071,1.427-123.107.089-7.664-11.817-7.669-11.906,0h0Z"/>
    <path d="M413.566,405.812c-.141,35.972-.281,71.944-.422,107.916-.069,17.589-.848,35.345-.031,52.916.691,14.86,5.222,30.342,18.957,38.132,6.674,3.786,12.681-6.497,6.009-10.281-13.342-7.567-13.232-24.762-13.196-38.196.045-16.831.132-33.662.197-50.493.13-33.332.261-66.664.391-99.996.03-7.662-11.876-7.672-11.906,0h0Z"/>
  </g>
  <g id="Layer_2-2" data-name="Layer_2">
    <path d="M447.139,86.501v21.096c0,1.504-1.673,2.563-3.431,2.203-1.419-.275-2.881-.445-4.406-.466-11.776-.169-21.392,7.71-21.392,17.474v37.066c0,3.664-3.558,6.63-7.964,6.63h-10.315c-4.406,0-7.964-2.965-7.964-6.63v-72.67c0-3.664,3.558-6.63,7.964-6.63h10.315c3.177,0,5.931,1.567,7.201,3.813,1.927-.889,3.961-1.652,6.036-2.309h.021c5.168-1.631,10.76-2.521,16.584-2.521,1.461,0,2.923.064,4.363.17,1.716.148,2.986,1.355,2.986,2.775Z"/>
    <path d="M174.28,243.88c-2.25.71-4.25,1.54-6.03,2.49l37.03.02c-9.67-4.68-20.86-5.71-31-2.51ZM251.99,218h-17.19c4.18,3.88,7.8,8.37,11.03,13.26,3.21,4.87,5.65,9.94,7.48,15.16h4.84l304.54-.29h.31l.02-.01.12-.09,38.84-27.88.02-.02-350.01-.13ZM645.95,259.21l-21.95,38.92v.53l-2.04,323.41c0,10.33-7.36,18.72-16.42,18.72h-113.66c-.53.58-1.09,1.16-1.66,1.74-13.54,13.65-30.27,22.21-52.13,19.58-16.53-1.98-28.09-10.22-36.82-21.32H38.53c-8.51,0-15.54-7.42-16.35-16.89-.05-.6-.07-1.2-.07-1.83v-357.05c0-10.33,7.36-18.72,16.42-18.72l92.45.05,8.4.01c2.93-10.96,9.53-20.48,19.68-28.37h-19.07l-99.73-.02c-22.23,0-40.26,20.52-40.26,45.88v356.82c0,6.22,1.08,12.16,3.05,17.55,6.04,16.63,20.44,28.33,37.21,28.33h565.48c22.229,0,40.26-20.54,40.26-45.88v-361.54l-.05.08Z"/>
    <path d="M607.28,246.15l-1.4-.01c.2-.01.41-.01.62-.01.26,0,.52.01.78.02Z"/>
    <path d="M646,261.13c0,16.12-8.87,30.17-22,37.53v-34.03l-.03-.01c.021-.33.03-.66.03-.99,0-9.36-7.36-17.01-16.6-17.48h-.12l-1.4-.01-42.74-.11-.12.09-.02.01h-.31c.02-.03.03-.07.04-.1,6-16,21.26-27.47,39.25-27.88.34-.02.68-.02,1.02-.02,18.52,0,34.3,11.7,40.35,28.11,1.51,4.07,2.41,8.43,2.6,12.97.04.63.05,1.28.05,1.92Z"/>
    <polygon points="562.73 246.03 563.14 246.03 563.02 246.12 562.73 246.03" fill="none"/>
    <path d="M650,246.26l-4,12.87-.05.08-21.95,38.92v-33.5l-.03-.01c.021-.33.03-.66.03-.99,0-9.36-7.36-17.01-16.6-17.48l35.95.09,6.65.02Z" fill="none"/>
    <path d="M258.156,241.082c1.838,45.562,2.72,91.158,2.644,136.757-.013,7.662,11.893,7.673,11.906,0,.076-45.599-.805-91.195-2.644-136.757-.308-7.635-12.216-7.675-11.906,0h0Z"/>
    <path d="M154.821,269.452v88.258c0,7.661,11.906,7.674,11.906,0v-88.258c0-7.661-11.906-7.674-11.906,0h0Z"/>
    <path d="M476.065,522.331c2.183,17.657,4.617,35.872,1.863,53.608-1.067,6.873-2.826,14.599-8.835,18.866-5.586,3.967-13.143,4.625-19.749,5.286-7.553.755-7.631,12.669,0,11.906,8.177-.818,16.573-1.774,23.895-5.796,7.926-4.353,12.597-12.098,14.855-20.653,5.41-20.493,2.433-42.542-.124-63.217-.928-7.506-12.846-7.599-11.906,0h0Z"/>
  </g>
</svg>