<?xml version="1.0" encoding="UTF-8"?>
<svg id="Layer_2" xmlns="http://www.w3.org/2000/svg" width="131.731" height="131.731" viewBox="0 0 131.731 131.731">
  <g id="Layer_2-2" data-name="Layer_2">
    <path d="M83.705,109.928l-8.399-20.817c-.799-1.979-.054-4.253,1.774-5.354,6.39-3.847,10.579-10.973,10.246-19.062-.445-10.792-9.219-19.691-20.004-20.278-12.26-.667-22.397,9.064-22.397,21.178,0,7.42,3.8,13.945,9.565,17.731,1.77,1.163,2.516,3.377,1.675,5.32l-9.034,20.869c-.888,2.051-3.339,2.89-5.311,1.839-15.763-8.402-26.171-24.527-27.164-42.549-1.55-28.15,20.35-52.59,48.5-54.13,28.15-1.55,52.59,20.35,54.13,48.5,1.123,20.496-10.139,39.643-28.261,48.744-2.018,1.013-4.474.103-5.318-1.991Z"/>
    <g>
      <g id="_x3C_Radial_Repeat_x3E_">
        <path d="M23.863,117.01l-8.955-9.038c-1.517-1.531-1.775-3.906-.623-5.728l7.007-11.077c1.589-2.512,5.102-2.894,7.194-.783l12.676,12.794c2.034,2.053,1.708,5.447-.678,7.075l-10.728,7.322c-1.843,1.258-4.322,1.02-5.892-.565Z"/>
      </g>
      <g id="_x3C_Radial_Repeat_x3E_-2" data-name="_x3C_Radial_Repeat_x3E_">
        <path d="M0,72.33l.059-12.723c.01-2.155,1.507-4.017,3.609-4.491l12.788-2.878c2.9-.653,5.654,1.561,5.64,4.534l-.083,18.01c-.013,2.889-2.643,5.059-5.483,4.523l-12.763-2.409C1.574,76.482-.01,74.561,0,72.33Z"/>
      </g>
      <g id="_x3C_Radial_Repeat_x3E_-3" data-name="_x3C_Radial_Repeat_x3E_">
        <path d="M14.72,23.863l9.038-8.955c1.531-1.517,3.906-1.775,5.728-.623l11.077,7.007c2.512,1.589,2.894,5.102.783,7.194l-12.794,12.676c-2.053,2.034-5.447,1.708-7.075-.678l-7.322-10.728c-1.258-1.843-1.02-4.322.565-5.892Z"/>
      </g>
      <g id="_x3C_Radial_Repeat_x3E_-4" data-name="_x3C_Radial_Repeat_x3E_">
        <path d="M59.401,0l12.723.059c2.155.01,4.017,1.507,4.491,3.609l2.878,12.788c.653,2.9-1.561,5.654-4.534,5.64l-18.01-.083c-2.889-.013-5.059-2.643-4.523-5.483l2.409-12.763C55.249,1.574,57.169-.01,59.401,0Z"/>
      </g>
      <g id="_x3C_Radial_Repeat_x3E_-5" data-name="_x3C_Radial_Repeat_x3E_">
        <path d="M107.868,14.72l8.955,9.038c1.517,1.531,1.775,3.906.623,5.728l-7.007,11.077c-1.589,2.512-5.102,2.894-7.194.783l-12.676-12.794c-2.034-2.053-1.708-5.447.678-7.075l10.728-7.322c1.843-1.258,4.322-1.02,5.892.565Z"/>
      </g>
      <g id="_x3C_Radial_Repeat_x3E_-6" data-name="_x3C_Radial_Repeat_x3E_">
        <path d="M131.731,59.401l-.059,12.723c-.01,2.155-1.507,4.017-3.609,4.491l-12.788,2.878c-2.9.653-5.654-1.561-5.64-4.534l.083-18.01c.013-2.889,2.643-5.059,5.483-4.523l12.763,2.409c2.193.414,3.777,2.335,3.767,4.566Z"/>
      </g>
      <g id="_x3C_Radial_Repeat_x3E_-7" data-name="_x3C_Radial_Repeat_x3E_">
        <path d="M117.01,107.868l-9.038,8.955c-1.531,1.517-3.906,1.775-5.728.623l-11.077-7.007c-2.512-1.589-2.894-5.102-.783-7.194l12.794-12.676c2.053-2.034,5.447-1.708,7.075.678l7.322,10.728c1.258,1.843,1.02,4.322-.565,5.892Z"/>
      </g>
    </g>
  </g>
</svg>